<?xml version="1.0" encoding="UTF-8" standalone="no"?>
<svg width="79px" height="54px" viewBox="0 0 79 54" version="1.1" xmlns="http://www.w3.org/2000/svg" xmlns:xlink="http://www.w3.org/1999/xlink" xmlns:sketch="http://www.bohemiancoding.com/sketch/ns">
    <!-- Generator: Sketch 3.3 (11970) - http://www.bohemiancoding.com/sketch -->
    <title>Fill 1</title>
    <desc>Created with Sketch.</desc>
    <defs></defs>
    <g id="Page-1" stroke="none" stroke-width="1" fill="none" fill-rule="evenodd" sketch:type="MSPage">
        <g id="02-About-Us" sketch:type="MSArtboardGroup" transform="translate(-678.000000, -42.000000)" fill="#4A4A4A">
            <g id="Logo-Mark" sketch:type="MSLayerGroup" transform="translate(457.500000, 42.000000)">
                <path d="M269.209405,9.45940935 C266.269763,24.1302242 263.331116,38.7960575 260.39247,53.4618908 C260.370302,53.4586527 260.348134,53.4556638 260.325965,53.4526748 L260.325965,0.502739881 C273.114482,3.41996541 285.852436,6.32573326 298.597862,9.23324467 C298.572207,9.29700916 298.568471,9.3189282 298.556017,9.33312577 C298.544559,9.34657609 298.524384,9.35355033 298.506699,9.36052457 C298.488267,9.36749881 298.468839,9.37297857 298.44941,9.37472213 C298.409807,9.37845834 298.369954,9.37970374 298.330101,9.3814473 C298.310175,9.38219454 298.290248,9.38194546 298.270322,9.38219454 C298.230469,9.38244362 298.190616,9.38244362 298.150763,9.38244362 C288.626191,9.38294178 279.101619,9.38343994 269.577047,9.3839381 C269.557121,9.3839381 269.537195,9.38443626 269.517268,9.3851835 C269.497342,9.38617982 269.477415,9.38742522 269.457738,9.3889197 C269.437812,9.39041418 269.417636,9.39066326 269.398208,9.39439946 C269.37878,9.39813566 269.360099,9.40486082 269.341169,9.4113369 C269.322488,9.4175639 269.303807,9.42478722 269.209405,9.45940935 Z M220.594709,9.22602135 C233.290568,6.3214989 245.986178,3.41697645 258.736586,0.5 L258.736586,53.4890405 C258.712674,53.4927767 258.688513,53.4962638 258.664601,53.5 C255.730937,38.8172293 252.797521,24.1344586 249.850157,9.38244362 L242.494325,9.38244362 L235.202506,9.38244362 L227.851158,9.38244362 C225.436078,9.38244362 223.020997,9.3826927 220.605917,9.38244362 C220.602181,9.33013681 220.598445,9.27807908 220.594709,9.22602135 Z" id="Fill-1" sketch:type="MSShapeGroup"></path>
            </g>
        </g>
    </g>
</svg>